<?xml version="1.0" encoding="UTF-8" standalone="no"?>
<svg width="486px" height="66px" viewBox="0 0 486 66" version="1.1" xmlns="http://www.w3.org/2000/svg" xmlns:xlink="http://www.w3.org/1999/xlink">
    <!-- Generator: sketchtool 39 (31667) - http://www.bohemiancoding.com/sketch -->
    <title>7D5BAF46-0DCE-4DAA-A45A-FB9EBEAA2883</title>
    <desc>Created with sketchtool.</desc>
    <defs>
        <polygon id="path-1" points="0.0176639319 65.8245614 46.5350399 65.8245614 46.5350399 0.503322807 0.0176639319 0.503322807 0.0176639319 65.8245614"></polygon>
        <polygon id="path-3" points="0.272450119 65.8245614 46.7874709 65.8245614 46.7874709 0.503322807 0.272450119 0.503322807 0.272450119 65.8245614"></polygon>
        <polygon id="path-5" points="0.272450119 65.8245614 46.7898261 65.8245614 46.7898261 0.503322807 0.272450119 0.503322807"></polygon>
        <polygon id="path-7" points="20.8879528 0.406701754 0.424876443 0.406701754 0.424876443 20.8870737 20.8879528 20.8870737 20.8879528 0.406701754"></polygon>
    </defs>
    <g id="Desktop--🖥" stroke="none" stroke-width="1" fill="none" fill-rule="evenodd">
        <g id="TopFloor-HomeII" transform="translate(-477.000000, -127.000000)">
            <g id="Page-1" transform="translate(477.000000, 127.000000)">
                <g id="Group-3" transform="translate(0.000000, 1.346314)" fill="#FFFFFF">
                    <path d="M42.7878134,0.351221053 L4.10144724,0.351221053 C1.58492573,0.351221053 -0.000117759546,2.02622105 -0.000117759546,4.25955439 C-0.000117759546,6.40002807 1.58492573,8.07502807 4.10144724,8.07502807 L18.7377812,8.07502807 C19.1099014,8.07502807 19.2971391,8.26192281 19.2971391,8.6333614 L19.2971391,59.6250632 C19.2971391,62.4155544 20.9752126,64.0893789 23.4905565,64.0893789 C25.914048,64.0893789 27.5932991,62.4155544 27.5932991,59.6250632 L27.5932991,8.6333614 C27.5932991,8.26192281 27.7793592,8.07502807 28.152657,8.07502807 L42.7878134,8.07502807 C45.3043349,8.07502807 46.8882008,6.40002807 46.8882008,4.25955439 C46.8882008,2.02622105 45.3043349,0.351221053 42.7878134,0.351221053" id="Fill-1"></path>
                </g>
                <g id="Group-6" transform="translate(51.814200, 0.170875)">
                    <mask id="mask-2" fill="white">
                        <use xlink:href="#path-1"></use>
                    </mask>
                    <g id="Clip-5"></g>
                    <path d="M36.6526588,48.3307439 C34.7885252,54.1938316 30.5939301,58.1021649 23.2280705,58.1021649 C15.9575961,58.1021649 11.7630011,54.1938316 9.89768986,48.3307439 C8.87318181,45.2593228 8.40685401,41.5378842 8.40685401,33.1652351 C8.40685401,24.7902351 8.87318181,21.0676211 9.89768986,17.9973754 C11.7630011,12.1354632 15.9575961,8.22712982 23.2280705,8.22712982 C30.5939301,8.22712982 34.7885252,12.1354632 36.6526588,17.9973754 C37.6783444,21.0676211 38.1446722,24.7902351 38.1446722,33.1652351 C38.1446722,41.5378842 37.6783444,45.2593228 36.6526588,48.3307439 M23.2280705,0.503322807 C12.3223589,0.503322807 4.9576769,5.80690175 1.78758991,15.4842877 C0.296754057,20.043814 0.0176639319,24.1390421 0.0176639319,33.1652351 C0.0176639319,42.1890772 0.296754057,46.2831298 1.78758991,50.8438316 C4.9576769,60.5212175 12.3223589,65.8247965 23.2280705,65.8247965 C34.2291673,65.8247965 41.5938493,60.5212175 44.7627587,50.8438316 C46.2547722,46.2831298 46.5350399,42.1890772 46.5350399,33.1652351 C46.5350399,24.1390421 46.2547722,20.043814 44.7627587,15.4842877 C41.5938493,5.80690175 34.2291673,0.503322807 23.2280705,0.503322807" id="Fill-4" fill="#FFFFFF" mask="url(#mask-2)"></path>
                </g>
                <path d="M225.780849,1.69753484 L193.247419,1.69753484 C190.916958,1.69753484 189.517974,3.18681554 189.517974,5.42014887 L189.517974,60.9713769 C189.517974,63.7618682 191.196048,65.4356927 193.712569,65.4356927 C196.136061,65.4356927 197.815312,63.7618682 197.815312,60.9713769 L197.815312,37.9868506 C197.815312,37.7070962 198.000195,37.5237278 198.372315,37.5237278 L221.210601,37.5237278 C223.730655,37.5237278 225.314521,35.8475524 225.314521,33.6130436 C225.314521,31.4737454 223.730655,29.7987454 221.210601,29.7987454 L198.372315,29.7987454 C198.000195,29.7987454 197.815312,29.6118506 197.815312,29.240412 L197.815312,9.97967519 C197.815312,9.60823659 198.000195,9.42134185 198.372315,9.42134185 L225.780849,9.42134185 C228.297371,9.42134185 229.881237,7.74634185 229.881237,5.51183308 C229.881237,3.37253484 228.297371,1.69753484 225.780849,1.69753484" id="Fill-7" fill="#FFFFFF"></path>
                <path d="M277.707745,57.2485278 L250.205003,57.2485278 C249.831706,57.2485278 249.648001,57.0628085 249.648001,56.6878436 L249.648001,5.69966817 C249.648001,2.90917694 247.876897,1.2330015 245.452228,1.2330015 C243.028737,1.2330015 241.349485,2.90917694 241.349485,5.69966817 L241.349485,60.8759313 C241.349485,63.3901945 242.840321,64.9711594 245.35802,64.9711594 L277.707745,64.9711594 C280.224267,64.9711594 281.805778,63.2961594 281.805778,61.0640015 C281.805778,58.9247033 280.224267,57.2485278 277.707745,57.2485278" id="Fill-9" fill="#FFFFFF"></path>
                <g id="Group-13" transform="translate(286.757612, 0.170875)">
                    <mask id="mask-4" fill="white">
                        <use xlink:href="#path-3"></use>
                    </mask>
                    <g id="Clip-12"></g>
                    <path d="M36.9086226,48.3307439 C35.0433113,54.1938316 30.8487163,58.1021649 23.4840343,58.1021649 C16.2135599,58.1021649 12.0177873,54.1938316 10.1501209,48.3307439 C9.1267904,45.2593228 8.6604626,41.5378842 8.6604626,33.1652351 C8.6604626,24.7902351 9.1267904,21.0676211 10.1501209,17.9973754 C12.0177873,12.1354632 16.2135599,8.22712982 23.4840343,8.22712982 C30.8487163,8.22712982 35.0433113,12.1354632 36.9086226,17.9973754 C37.931953,21.0676211 38.3971032,24.7902351 38.3971032,33.1652351 C38.3971032,41.5378842 37.931953,45.2593228 36.9086226,48.3307439 M23.4840343,0.503322807 C12.5771451,0.503322807 5.21246309,5.80690175 2.04355369,15.4842877 C0.550362648,20.043814 0.272450119,24.1390421 0.272450119,33.1652351 C0.272450119,42.1890772 0.550362648,46.2831298 2.04355369,50.8438316 C5.21246309,60.5212175 12.5771451,65.8247965 23.4840343,65.8247965 C34.4815983,65.8247965 41.8462803,60.5212175 45.0163673,50.8438316 C46.5083808,46.2831298 46.7874709,42.1890772 46.7874709,33.1652351 C46.7874709,24.1390421 46.5083808,20.043814 45.0163673,15.4842877 C41.8462803,5.80690175 34.4815983,0.503322807 23.4840343,0.503322807" id="Fill-11" fill="#FFFFFF" mask="url(#mask-4)"></path>
                </g>
                <g id="Group-16" transform="translate(344.459790, 0.170875)">
                    <mask id="mask-6" fill="white">
                        <use xlink:href="#path-5"></use>
                    </mask>
                    <g id="Clip-15"></g>
                    <path d="M36.9062674,48.3307439 C35.0433113,54.1938316 30.8475387,58.1021649 23.4840343,58.1021649 C16.2135599,58.1021649 12.0177873,54.1938316 10.1524761,48.3307439 C9.12914559,45.2593228 8.66517298,41.5378842 8.66517298,33.1652351 C8.66517298,24.7902351 9.12914559,21.0676211 10.1524761,17.9973754 C12.0177873,12.1354632 16.2135599,8.22712982 23.4840343,8.22712982 C30.8475387,8.22712982 35.0433113,12.1354632 36.9062674,17.9973754 C37.931953,21.0676211 38.3994584,24.7902351 38.3994584,33.1652351 C38.3994584,41.5378842 37.931953,45.2593228 36.9062674,48.3307439 M23.4840343,0.503322807 C12.5771451,0.503322807 5.21246309,5.80690175 2.04473129,15.4842877 C0.552717839,20.043814 0.272450119,24.1390421 0.272450119,33.1652351 C0.272450119,42.1890772 0.552717839,46.2831298 2.04473129,50.8438316 C5.21246309,60.5212175 12.5771451,65.8247965 23.4840343,65.8247965 C34.4839535,65.8247965 41.8486355,60.5212175 45.0187225,50.8438316 C46.510736,46.2831298 46.7898261,42.1890772 46.7898261,33.1652351 C46.7898261,24.1390421 46.510736,20.043814 45.0187225,15.4842877 C41.8486355,5.80690175 34.4839535,0.503322807 23.4840343,0.503322807" id="Fill-14" fill="#FFFFFF" mask="url(#mask-6)"></path>
                </g>
                <g id="Group-19" transform="translate(465.150208, 0.170875)">
                    <mask id="mask-8" fill="white">
                        <use xlink:href="#path-7"></use>
                    </mask>
                    <g id="Clip-18"></g>
                    <path d="M10.6558258,19.1239158 C5.83239481,19.1239158 2.24426143,15.4871088 2.24426143,10.6196175 C2.24426143,5.75330175 5.83239481,2.16938947 10.6558258,2.16938947 C15.4792568,2.16938947 19.0673902,5.75330175 19.0673902,10.6196175 C19.0673902,15.4871088 15.4792568,19.1239158 10.6558258,19.1239158 M10.6558258,0.406231579 C4.87147691,0.406231579 0.424876443,4.84468772 0.424876443,10.6196175 C0.424876443,16.449793 4.87147691,20.8870737 10.6558258,20.8870737 C16.4978769,20.8870737 20.8879528,16.449793 20.8879528,10.6196175 C20.8879528,4.84468772 16.4978769,0.406231579 10.6558258,0.406231579" id="Fill-17" fill="#FFFFFF" mask="url(#mask-8)"></path>
                </g>
                <path d="M476.502935,10.0427962 L474.090042,10.0427962 C473.931066,10.0427962 473.876897,9.93465589 473.876897,9.82886642 L473.876897,7.09949799 C473.876897,6.94081378 473.931066,6.88674361 474.090042,6.88674361 L476.502935,6.88674361 C477.786514,6.88674361 478.377667,7.42156817 478.377667,8.43832256 C478.377667,9.45272607 477.786514,10.0427962 476.502935,10.0427962 M480.412552,8.43832256 C480.412552,6.35074361 479.021811,5.0683401 476.611273,5.0683401 L472.859454,5.0683401 C472.268301,5.0683401 471.843189,5.44330501 471.843189,6.08509449 L471.843189,15.4439366 C471.843189,16.1386208 472.212954,16.565305 472.859454,16.565305 C473.450607,16.565305 473.876897,16.1386208 473.876897,15.4439366 L473.876897,12.0727787 C473.876897,11.9140945 473.876897,11.8611997 474.039405,11.8611997 L476.234443,11.8611997 L478.32232,15.8717962 C478.536642,16.2984805 478.860481,16.5135857 479.290303,16.5135857 C479.876746,16.5135857 480.254754,16.1386208 480.254754,15.6037962 C480.254754,15.4439366 480.199407,15.1759366 480.095778,15.0149015 L478.32232,11.5379541 C479.71777,11.1124454 480.412552,9.98755063 480.412552,8.43832256" id="Fill-20" fill="#FFFFFF"></path>
                <path d="M436.276038,36.9630436 C443.824425,34.5428155 448.300465,28.4023243 448.300465,19.9356401 C448.300465,8.86300852 440.563663,1.69753484 428.257791,1.69753484 L420.456221,1.69753484 L420.456221,9.42134185 L428.350821,9.42134185 C435.714325,9.42134185 440.098513,13.3284997 440.098513,19.9356401 C440.098513,26.5404296 435.714325,30.4499383 428.350821,30.4499383 L420.456221,30.4499383 L420.456221,38.1725699 L427.69961,38.1725699 L440.190365,62.8320962 C441.216051,64.5999559 442.523182,65.4356927 444.200078,65.4356927 C446.715422,65.4356927 448.208613,63.5761489 448.208613,61.5285348 C448.208613,60.6916226 448.020198,60.0404296 447.6469,59.2963769 L436.276038,36.9630436 Z" id="Fill-22" fill="#FFFFFF"></path>
                <path d="M408.402471,1.69753484 C406.073187,1.69753484 404.674204,3.18681554 404.674204,5.42014887 L404.674204,60.9713769 C404.674204,63.7618682 406.3511,65.4356927 408.869977,65.4356927 C411.231056,65.4356927 412.869091,63.8394471 412.953878,61.1794296 L412.953878,1.69753484 L408.402471,1.69753484 Z" id="Fill-24" fill="#FFFFFF"></path>
                <path d="M115.499741,1.69753484 C113.169279,1.69753484 111.771473,3.18681554 111.771473,5.42014887 L111.771473,60.9713769 C111.771473,63.7618682 113.449547,65.4356927 115.966068,65.4356927 C117.998598,65.4356927 119.490612,64.2484997 119.925144,62.2243945 L119.925144,1.69753484 L115.499741,1.69753484 Z" id="Fill-26" fill="#FFFFFF"></path>
                <path d="M135.077265,1.69753484 L127.428783,1.69753484 L127.428783,9.42134185 L134.796997,9.42134185 C142.628007,9.42134185 147.1959,13.7034647 147.1959,20.5856576 C147.1959,27.4725524 142.628007,31.7511489 134.796997,31.7511489 L127.428783,31.7511489 L127.428783,39.4749559 L135.077265,39.4749559 C147.755258,39.4749559 155.400208,31.845184 155.400208,20.5856576 C155.400208,9.32730677 147.755258,1.69753484 135.077265,1.69753484" id="Fill-28" fill="#FFFFFF"></path>
            </g>
        </g>
    </g>
</svg>