<?xml version="1.0" encoding="UTF-8" standalone="no"?>
<svg width="660px" height="90px" viewBox="0 0 660 90" version="1.1" xmlns="http://www.w3.org/2000/svg" xmlns:xlink="http://www.w3.org/1999/xlink">
    <!-- Generator: sketchtool 3.8.3 (29802) - http://www.bohemiancoding.com/sketch -->
    <title>248ADDD6-F33A-4C5C-A38B-3EA5575CCA06</title>
    <desc>Created with sketchtool.</desc>
    <defs>
        <polygon id="path-1" points="0.0239750698 89.4035088 63.1615223 89.4035088 63.1615223 0.683617544 0.0239750698 0.683617544 0.0239750698 89.4035088"></polygon>
        <polygon id="path-3" points="0.369793693 89.4035088 63.5041443 89.4035088 63.5041443 0.683617544 0.369793693 0.683617544 0.369793693 89.4035088"></polygon>
        <polygon id="path-5" points="0.369793693 89.4035088 63.507341 89.4035088 63.507341 0.683617544 0.369793693 0.683617544"></polygon>
        <polygon id="path-7" points="28.3509996 0.552385965 0.576680347 0.552385965 0.576680347 28.3690105 28.3509996 28.3690105 28.3509996 0.552385965"></polygon>
    </defs>
    <g id="Desktop--🖥" stroke="none" stroke-width="1" fill="none" fill-rule="evenodd">
        <g id="TopFloor-HomeII" transform="translate(-390.000000, -130.000000)">
            <g id="Page-1" transform="translate(390.000000, 130.000000)">
                <g id="Group-3" transform="translate(0.000000, 1.828575)" fill="#ED1C24">
                    <path d="M58.075451,0.477031579 L5.56685138,0.477031579 C2.1512031,0.477031579 -0.000159833799,2.75203158 -0.000159833799,5.78536491 C-0.000159833799,8.69257544 2.1512031,10.9675754 5.56685138,10.9675754 L25.4325943,10.9675754 C25.9376691,10.9675754 26.1918048,11.2214175 26.1918048,11.7259088 L26.1918048,80.9832947 C26.1918048,84.7733649 28.4694364,87.0467684 31.8834864,87.0467684 C35.172866,87.0467684 37.4520959,84.7733649 37.4520959,80.9832947 L37.4520959,11.7259088 C37.4520959,11.2214175 37.7046333,10.9675754 38.2113065,10.9675754 L58.075451,10.9675754 C61.4910993,10.9675754 63.6408639,8.69257544 63.6408639,5.78536491 C63.6408639,2.75203158 61.4910993,0.477031579 58.075451,0.477031579" id="Fill-1"></path>
                </g>
                <g id="Group-6" transform="translate(70.326872, 0.232084)">
                    <mask id="mask-2" fill="white">
                        <use xlink:href="#path-1"></use>
                    </mask>
                    <g id="Clip-5"></g>
                    <path d="M49.7482699,65.6432491 C47.2181009,73.6065474 41.524821,78.9148807 31.5272168,78.9148807 C21.6590781,78.9148807 15.9657982,73.6065474 13.4340308,65.6432491 C12.0434768,61.4716175 11.4105349,56.4171263 11.4105349,45.0453193 C11.4105349,33.6703193 12.0434768,28.6142316 13.4340308,24.4441965 C15.9657982,16.4824947 21.6590781,11.1741614 31.5272168,11.1741614 C41.524821,11.1741614 47.2181009,16.4824947 49.7482699,24.4441965 C51.1404223,28.6142316 51.7733642,33.6703193 51.7733642,45.0453193 C51.7733642,56.4171263 51.1404223,61.4716175 49.7482699,65.6432491 M31.5272168,0.683617544 C16.7250087,0.683617544 6.72900294,7.88698596 2.42627707,21.0308982 C0.402781173,27.2236877 0.0239750698,32.7858632 0.0239750698,45.0453193 C0.0239750698,57.3015825 0.402781173,62.8621614 2.42627707,69.0565474 C6.72900294,82.2004596 16.7250087,89.4038281 31.5272168,89.4038281 C46.4588903,89.4038281 56.4548961,82.2004596 60.7560237,69.0565474 C62.7811179,62.8621614 63.1615223,57.3015825 63.1615223,45.0453193 C63.1615223,32.7858632 62.7811179,27.2236877 60.7560237,21.0308982 C56.4548961,7.88698596 46.4588903,0.683617544 31.5272168,0.683617544" id="Fill-4" fill="#ED1C24" mask="url(#mask-2)"></path>
                </g>
                <path d="M306.449982,2.30560702 L262.292698,2.30560702 C259.129588,2.30560702 257.230762,4.3283614 257.230762,7.36169474 L257.230762,82.8118702 C257.230762,86.6019404 259.508394,88.8753439 262.924042,88.8753439 C266.213422,88.8753439 268.492651,86.6019404 268.492651,82.8118702 L268.492651,51.5940807 C268.492651,51.2141158 268.743591,50.9650632 269.248665,50.9650632 L300.246832,50.9650632 C303.667276,50.9650632 305.81704,48.6884667 305.81704,45.6535368 C305.81704,42.7479228 303.667276,40.4729228 300.246832,40.4729228 L269.248665,40.4729228 C268.743591,40.4729228 268.492651,40.2190807 268.492651,39.7145895 L268.492651,13.5544842 C268.492651,13.049993 268.743591,12.7961509 269.248665,12.7961509 L306.449982,12.7961509 C309.86563,12.7961509 312.015395,10.5211509 312.015395,7.48622105 C312.015395,4.58060702 309.86563,2.30560702 306.449982,2.30560702" id="Fill-7" fill="#ED1C24"></path>
                <path d="M376.929815,77.7554632 L339.600631,77.7554632 C339.093958,77.7554632 338.844617,77.5032175 338.844617,76.9939368 L338.844617,7.74134035 C338.844617,3.95127018 336.440717,1.67467368 333.149739,1.67467368 C329.860359,1.67467368 327.581129,3.95127018 327.581129,7.74134035 L327.581129,82.6822351 C327.581129,86.0971298 329.604625,88.2444105 333.021872,88.2444105 L376.929815,88.2444105 C380.345463,88.2444105 382.492031,85.9694105 382.492031,82.9376737 C382.492031,80.0320596 380.345463,77.7554632 376.929815,77.7554632" id="Fill-9" fill="#ED1C24"></path>
                <g id="Group-13" transform="translate(389.213104, 0.232084)">
                    <mask id="mask-4" fill="white">
                        <use xlink:href="#path-3"></use>
                    </mask>
                    <g id="Clip-12"></g>
                    <path d="M50.0956869,65.6432491 C47.5639195,73.6065474 41.8706396,78.9148807 31.8746338,78.9148807 C22.0064951,78.9148807 16.3116168,73.6065474 13.7766527,65.6432491 C12.387697,61.4716175 11.7547552,56.4171263 11.7547552,45.0453193 C11.7547552,33.6703193 12.387697,28.6142316 13.7766527,24.4441965 C16.3116168,16.4824947 22.0064951,11.1741614 31.8746338,11.1741614 C41.8706396,11.1741614 47.5639195,16.4824947 50.0956869,24.4441965 C51.4846426,28.6142316 52.1159861,33.6703193 52.1159861,45.0453193 C52.1159861,56.4171263 51.4846426,61.4716175 50.0956869,65.6432491 M31.8746338,0.683617544 C17.0708273,0.683617544 7.07482156,7.88698596 2.77369403,21.0308982 C0.747001458,27.2236877 0.369793693,32.7858632 0.369793693,45.0453193 C0.369793693,57.3015825 0.747001458,62.8621614 2.77369403,69.0565474 C7.07482156,82.2004596 17.0708273,89.4038281 31.8746338,89.4038281 C46.8015123,89.4038281 56.7975181,82.2004596 61.1002439,69.0565474 C63.1253382,62.8621614 63.5041443,57.3015825 63.5041443,45.0453193 C63.5041443,32.7858632 63.1253382,27.2236877 61.1002439,21.0308982 C56.7975181,7.88698596 46.8015123,0.683617544 31.8746338,0.683617544" id="Fill-11" fill="#ED1C24" mask="url(#mask-4)"></path>
                </g>
                <g id="Group-16" transform="translate(467.531665, 0.232084)">
                    <mask id="mask-6" fill="white">
                        <use xlink:href="#path-5"></use>
                    </mask>
                    <g id="Clip-15"></g>
                    <path d="M50.0924902,65.6432491 C47.5639195,73.6065474 41.8690413,78.9148807 31.8746338,78.9148807 C22.0064951,78.9148807 16.3116168,73.6065474 13.7798494,65.6432491 C12.3908937,61.4716175 11.7611485,56.4171263 11.7611485,45.0453193 C11.7611485,33.6703193 12.3908937,28.6142316 13.7798494,24.4441965 C16.3116168,16.4824947 22.0064951,11.1741614 31.8746338,11.1741614 C41.8690413,11.1741614 47.5639195,16.4824947 50.0924902,24.4441965 C51.4846426,28.6142316 52.1191828,33.6703193 52.1191828,45.0453193 C52.1191828,56.4171263 51.4846426,61.4716175 50.0924902,65.6432491 M31.8746338,0.683617544 C17.0708273,0.683617544 7.07482156,7.88698596 2.77529237,21.0308982 C0.750198134,27.2236877 0.369793693,32.7858632 0.369793693,45.0453193 C0.369793693,57.3015825 0.750198134,62.8621614 2.77529237,69.0565474 C7.07482156,82.2004596 17.0708273,89.4038281 31.8746338,89.4038281 C46.804709,89.4038281 56.8007148,82.2004596 61.1034406,69.0565474 C63.1285349,62.8621614 63.507341,57.3015825 63.507341,45.0453193 C63.507341,32.7858632 63.1285349,27.2236877 61.1034406,21.0308982 C56.8007148,7.88698596 46.804709,0.683617544 31.8746338,0.683617544" id="Fill-14" fill="#ED1C24" mask="url(#mask-6)"></path>
                </g>
                <g id="Group-19" transform="translate(631.343506, 0.232084)">
                    <mask id="mask-8" fill="white">
                        <use xlink:href="#path-7"></use>
                    </mask>
                    <g id="Clip-18"></g>
                    <path d="M14.4630408,25.9742737 C7.91624839,25.9742737 3.04611254,21.0347298 3.04611254,14.4236596 C3.04611254,7.81418596 7.91624839,2.94648421 14.4630408,2.94648421 C21.0098332,2.94648421 25.8799691,7.81418596 25.8799691,14.4236596 C25.8799691,21.0347298 21.0098332,25.9742737 14.4630408,25.9742737 M14.4630408,0.551747368 C6.6120046,0.551747368 0.576680347,6.58009825 0.576680347,14.4236596 C0.576680347,22.3422561 6.6120046,28.3690105 14.4630408,28.3690105 C22.3923956,28.3690105 28.3509996,22.3422561 28.3509996,14.4236596 C28.3509996,6.58009825 22.3923956,0.551747368 14.4630408,0.551747368" id="Fill-17" fill="#ED1C24" mask="url(#mask-8)"></path>
                </g>
                <path d="M646.752443,13.6402158 L643.477449,13.6402158 C643.261673,13.6402158 643.188149,13.4933386 643.188149,13.3496544 L643.188149,9.64260175 C643.188149,9.42707544 643.261673,9.35363684 643.477449,9.35363684 L646.752443,9.35363684 C648.494632,9.35363684 649.296997,10.0800404 649.296997,11.4610053 C649.296997,12.8387772 648.494632,13.6402158 646.752443,13.6402158 M652.058925,11.4610053 C652.058925,8.62563684 650.171288,6.88386491 646.89949,6.88386491 L641.807185,6.88386491 C641.00482,6.88386491 640.42782,7.39314561 640.42782,8.26482982 L640.42782,20.976093 C640.42782,21.9196193 640.929698,22.4991456 641.807185,22.4991456 C642.609551,22.4991456 643.188149,21.9196193 643.188149,20.976093 L643.188149,16.3973561 C643.188149,16.1818298 643.188149,16.1099877 643.40872,16.1099877 L646.388022,16.1099877 L649.221875,21.5572158 C649.512773,22.1367421 649.952316,22.4289 650.535709,22.4289 C651.331681,22.4289 651.844748,21.9196193 651.844748,21.1932158 C651.844748,20.976093 651.769626,20.612093 651.628972,20.3933737 L649.221875,15.6709526 C651.115906,15.0930228 652.058925,13.5651807 652.058925,11.4610053" id="Fill-20" fill="#ED1C24"></path>
                <path d="M592.152898,50.2035368 C602.398244,46.9163614 608.473527,38.5762912 608.473527,27.0767649 C608.473527,12.0378175 597.972446,2.30560702 581.269814,2.30560702 L570.680825,2.30560702 L570.680825,12.7961509 L581.396083,12.7961509 C591.39049,12.7961509 597.341103,18.1028877 597.341103,27.0767649 C597.341103,36.0474491 591.39049,41.3573789 581.396083,41.3573789 L570.680825,41.3573789 L570.680825,51.8463263 L580.512202,51.8463263 L597.465773,85.3391158 C598.857926,87.7402386 600.632081,88.8753439 602.908114,88.8753439 C606.322164,88.8753439 608.348857,86.3496947 608.348857,83.568607 C608.348857,82.4319053 608.093122,81.5474491 607.586449,80.5368702 L592.152898,50.2035368 Z" id="Fill-22" fill="#ED1C24"></path>
                <path d="M554.320397,2.30560702 C551.158885,2.30560702 549.260059,4.3283614 549.260059,7.36169474 L549.260059,82.8118702 C549.260059,86.6019404 551.536093,88.8753439 554.954938,88.8753439 C558.159605,88.8753439 560.382893,86.7073088 560.497974,83.0944491 L560.497974,2.30560702 L554.320397,2.30560702 Z" id="Fill-24" fill="#ED1C24"></path>
                <path d="M156.766588,2.30560702 C153.603477,2.30560702 151.70625,4.3283614 151.70625,7.36169474 L151.70625,82.8118702 C151.70625,86.6019404 153.983882,88.8753439 157.39953,88.8753439 C160.158262,88.8753439 162.183356,87.2628877 162.773143,84.5137298 L162.773143,2.30560702 L156.766588,2.30560702 Z" id="Fill-26" fill="#ED1C24"></path>
                <path d="M183.338957,2.30560702 L172.957752,2.30560702 L172.957752,12.7961509 L182.958553,12.7961509 C193.587501,12.7961509 199.787454,18.6121684 199.787454,27.9596246 C199.787454,37.3134667 193.587501,43.1246947 182.958553,43.1246947 L172.957752,43.1246947 L172.957752,53.6152386 L183.338957,53.6152386 C200.546664,53.6152386 210.923074,43.252414 210.923074,27.9596246 C210.923074,12.6684316 200.546664,2.30560702 183.338957,2.30560702" id="Fill-28" fill="#ED1C24"></path>
            </g>
        </g>
    </g>
</svg>