<?xml version="1.0" encoding="UTF-8" standalone="no"?>
<svg width="194px" height="50px" viewBox="0 0 194 50" version="1.1" xmlns="http://www.w3.org/2000/svg" xmlns:xlink="http://www.w3.org/1999/xlink">
    <!-- Generator: sketchtool 3.8.3 (29802) - http://www.bohemiancoding.com/sketch -->
    <title>A3CEBE99-AC17-4B95-BA9F-F34F466CF3C5</title>
    <desc>Created with sketchtool.</desc>
    <defs>
        <polygon id="path-1" points="6.40502874 0.181034483 0.162931034 0.181034483 0.162931034 6.43958333 6.40502874 6.43958333 6.40502874 0.181034483"></polygon>
        <polygon id="path-3" points="6.40502874 0.181034483 0.162931034 0.181034483 0.162931034 6.43958333 6.40502874 6.43958333 6.40502874 0.181034483"></polygon>
    </defs>
    <g id="Desktop--🖥" stroke="none" stroke-width="1" fill="none" fill-rule="evenodd">
        <g id="TopFloor-HomeII" transform="translate(-122.000000, 0.000000)">
            <g id="TopFloor" transform="translate(122.000000, 0.000000)">
                <rect id="Rectangle-82" fill="#ED1C24" x="0" y="0" width="193.055556" height="50"></rect>
                <g id="TopFloor-Logo" transform="translate(15.000000, 14.000000)">
                    <path d="M29.9672055,0.70158046 L18.1669181,0.70158046 C17.3989583,0.70158046 16.9158405,1.2137931 16.9158405,1.89626437 C16.9158405,2.55 17.3989583,3.06221264 18.1669181,3.06221264 L22.6313578,3.06221264 C22.7448635,3.06221264 22.8016164,3.11896552 22.8016164,3.23283046 L22.8016164,18.8150862 C22.8016164,19.6674569 23.3134698,20.1789511 24.0810704,20.1789511 C24.8202945,20.1789511 25.3325072,19.6674569 25.3325072,18.8150862 L25.3325072,3.23283046 C25.3325072,3.11896552 25.3892601,3.06221264 25.503125,3.06221264 L29.9672055,3.06221264 C30.734806,3.06221264 31.2179239,2.55 31.2179239,1.89626437 C31.2179239,1.2137931 30.734806,0.70158046 29.9672055,0.70158046" id="Fill-1" fill="#FEFEFE"></path>
                    <path d="M43.9002155,15.0041307 C43.3316092,16.7957974 42.051796,17.9901221 39.8057471,17.9901221 C37.5877155,17.9901221 36.3082615,16.7957974 35.7396552,15.0041307 C35.426796,14.0655532 35.2845546,12.9283405 35.2845546,10.3697917 C35.2845546,7.81052443 35.426796,6.67331178 35.7396552,5.73509339 C36.3082615,3.94342672 37.5877155,2.74946121 39.8057471,2.74946121 C42.051796,2.74946121 43.3316092,3.94342672 43.9002155,5.73509339 C44.2130747,6.67331178 44.3553161,7.81052443 44.3553161,10.3697917 C44.3553161,12.9283405 44.2130747,14.0655532 43.9002155,15.0041307 M39.8057471,0.389188218 C36.4788793,0.389188218 34.2324713,2.00987787 33.2658764,4.96713362 C32.8111351,6.36045259 32.7256466,7.61188937 32.7256466,10.3697917 C32.7256466,13.1273348 32.8111351,14.3784124 33.2658764,15.7724497 C34.2324713,18.7293463 36.4788793,20.3500359 39.8057471,20.3500359 C43.1609914,20.3500359 45.4073994,18.7293463 46.3739943,15.7724497 C46.8290948,14.3784124 46.9145833,13.1273348 46.9145833,10.3697917 C46.9145833,7.61188937 46.8290948,6.36045259 46.3739943,4.96713362 C45.4073994,2.00987787 43.1609914,0.389188218 39.8057471,0.389188218" id="Fill-3" fill="#FEFEFE"></path>
                    <path d="M85.7845546,0.70158046 L75.8610632,0.70158046 C75.1498563,0.70158046 74.7234914,1.15704023 74.7234914,1.83951149 L74.7234914,18.8150862 C74.7234914,19.6674569 75.2353448,20.1789511 76.0029454,20.1789511 C76.7421695,20.1789511 77.2543822,19.6674569 77.2543822,18.8150862 L77.2543822,11.7910201 C77.2543822,11.7055316 77.3107759,11.6494971 77.4242816,11.6494971 L84.3905172,11.6494971 C85.1588362,11.6494971 85.6423132,11.1372845 85.6423132,10.454454 C85.6423132,9.80071839 85.1588362,9.28922414 84.3905172,9.28922414 L77.4242816,9.28922414 C77.3107759,9.28922414 77.2543822,9.23175287 77.2543822,9.11824713 L77.2543822,3.23283046 C77.2543822,3.11896552 77.3107759,3.06221264 77.4242816,3.06221264 L85.7845546,3.06221264 C86.5521552,3.06221264 87.035273,2.55 87.035273,1.86752874 C87.035273,1.2137931 86.5521552,0.70158046 85.7845546,0.70158046" id="Fill-5" fill="#FEFEFE"></path>
                    <path d="M101.623168,17.6770474 L93.2341595,17.6770474 C93.1206537,17.6770474 93.0646193,17.6202945 93.0646193,17.5057112 L93.0646193,1.92453305 C93.0646193,1.07180316 92.5240302,0.559949713 91.784806,0.559949713 C91.0455819,0.559949713 90.5333693,1.07180316 90.5333693,1.92453305 L90.5333693,18.7855244 C90.5333693,19.5538434 90.9881106,20.0369612 91.7560704,20.0369612 L101.623168,20.0369612 C102.390769,20.0369612 102.873886,19.5251078 102.873886,18.8429957 C102.873886,18.1892601 102.390769,17.6770474 101.623168,17.6770474" id="Fill-7" fill="#FEFEFE"></path>
                    <path d="M115.641631,15.0041307 C115.072665,16.7957974 113.792852,17.9901221 111.546803,17.9901221 C109.329131,17.9901221 108.049318,16.7957974 107.479993,15.0041307 C107.167852,14.0655532 107.025251,12.9283405 107.025251,10.3697917 C107.025251,7.81052443 107.167852,6.67331178 107.479993,5.73509339 C108.049318,3.94342672 109.329131,2.74946121 111.546803,2.74946121 C113.792852,2.74946121 115.072665,3.94342672 115.641631,5.73509339 C115.954131,6.67331178 116.096013,7.81052443 116.096013,10.3697917 C116.096013,12.9283405 115.954131,14.0655532 115.641631,15.0041307 M111.546803,0.389188218 C108.219935,0.389188218 105.973527,2.00987787 105.006932,4.96713362 C104.551473,6.36045259 104.466703,7.61188937 104.466703,10.3697917 C104.466703,13.1273348 104.551473,14.3784124 105.006932,15.7724497 C105.973527,18.7293463 108.219935,20.3500359 111.546803,20.3500359 C114.901688,20.3500359 117.148096,18.7293463 118.11505,15.7724497 C118.569792,14.3784124 118.65528,13.1273348 118.65528,10.3697917 C118.65528,7.61188937 118.569792,6.36045259 118.11505,4.96713362 C117.148096,2.00987787 114.901688,0.389188218 111.546803,0.389188218" id="Fill-9" fill="#FEFEFE"></path>
                    <path d="M133.241846,15.0041307 C132.673599,16.7957974 131.393786,17.9901221 129.147737,17.9901221 C126.929705,17.9901221 125.650251,16.7957974 125.081286,15.0041307 C124.768786,14.0655532 124.627263,12.9283405 124.627263,10.3697917 C124.627263,7.81052443 124.768786,6.67331178 125.081286,5.73509339 C125.650251,3.94342672 126.929705,2.74946121 129.147737,2.74946121 C131.393786,2.74946121 132.673599,3.94342672 133.241846,5.73509339 C133.554705,6.67331178 133.697306,7.81052443 133.697306,10.3697917 C133.697306,12.9283405 133.554705,14.0655532 133.241846,15.0041307 M129.147737,0.389188218 C125.820869,0.389188218 123.574461,2.00987787 122.608226,4.96713362 C122.153125,6.36045259 122.067636,7.61188937 122.067636,10.3697917 C122.067636,13.1273348 122.153125,14.3784124 122.608226,15.7724497 C123.574461,18.7293463 125.820869,20.3500359 129.147737,20.3500359 C132.502981,20.3500359 134.749389,18.7293463 135.716343,15.7724497 C136.171444,14.3784124 136.256573,13.1273348 136.256573,10.3697917 C136.256573,7.61188937 136.171444,6.36045259 135.716343,4.96713362 C134.749389,2.00987787 132.502981,0.389188218 129.147737,0.389188218" id="Fill-11" fill="#FEFEFE"></path>
                    <g id="Group-15" transform="translate(158.764368, 0.178197)">
                        <mask id="mask-2" fill="white">
                            <use xlink:href="#path-1"></use>
                        </mask>
                        <g id="Clip-14"></g>
                        <path d="M3.28397989,5.90079023 C1.81271552,5.90079023 0.718247126,4.78943966 0.718247126,3.30237069 C0.718247126,1.81494253 1.81271552,0.719755747 3.28397989,0.719755747 C4.75524425,0.719755747 5.84971264,1.81494253 5.84971264,3.30237069 C5.84971264,4.78943966 4.75524425,5.90079023 3.28397989,5.90079023 M3.28397989,0.180962644 C1.51925287,0.180962644 0.162931034,1.53728448 0.162931034,3.30237069 C0.162931034,5.08362069 1.51925287,6.43958333 3.28397989,6.43958333 C5.06558908,6.43958333 6.40502874,5.08362069 6.40502874,3.30237069 C6.40502874,1.53728448 5.06558908,0.180962644 3.28397989,0.180962644" id="Fill-13" fill="#FEFEFE" mask="url(#mask-2)"></path>
                    </g>
                    <path d="M162.26056,3.25172414 L161.524569,3.25172414 C161.476078,3.25172414 161.459555,3.21867816 161.459555,3.18635057 L161.459555,2.35229885 C161.459555,2.30380747 161.476078,2.28764368 161.524569,2.28764368 L162.26056,2.28764368 C162.652443,2.28764368 162.832759,2.45107759 162.832759,2.76142241 C162.832759,3.07140805 162.652443,3.25172414 162.26056,3.25172414 M163.453089,2.76142241 C163.453089,2.12349138 163.029239,1.73232759 162.293606,1.73232759 L161.14921,1.73232759 C160.969253,1.73232759 160.839224,1.84655172 160.839224,2.04231322 L160.839224,4.90258621 C160.839224,5.11487069 160.952371,5.24489943 161.14921,5.24489943 C161.329526,5.24489943 161.459555,5.11487069 161.459555,4.90258621 L161.459555,3.8720546 C161.459555,3.82356322 161.459555,3.80739943 161.509483,3.80739943 L162.178664,3.80739943 L162.815876,5.03297414 C162.880891,5.16336207 162.97967,5.22945402 163.110776,5.22945402 C163.289655,5.22945402 163.404598,5.11487069 163.404598,4.95143678 C163.404598,4.90258621 163.388075,4.82033046 163.356466,4.77112069 L162.815876,3.70897989 C163.241164,3.57859195 163.453089,3.23484195 163.453089,2.76142241" id="Fill-16" fill="#FEFEFE"></path>
                    <path d="M149.990374,11.478125 C152.292816,10.7385417 153.658118,8.86210489 153.658118,6.2748204 C153.658118,2.89119971 151.298204,0.70154454 147.544612,0.70154454 L145.165302,0.70154454 L145.165302,3.06217672 L147.572989,3.06217672 C149.819397,3.06217672 151.156322,4.25578305 151.156322,6.2748204 C151.156322,8.29313937 149.819397,9.48782328 147.572989,9.48782328 L145.165302,9.48782328 L145.165302,11.8477371 L147.374353,11.8477371 L151.184339,19.3832974 C151.497198,19.9235273 151.895905,20.1789152 152.407399,20.1789152 C153.174641,20.1789152 153.630101,19.6106681 153.630101,18.9853089 C153.630101,18.7292026 153.572629,18.5302083 153.458764,18.3028376 L149.990374,11.478125 Z" id="Fill-18" fill="#FEFEFE"></path>
                    <path d="M141.488614,0.70158046 C140.777407,0.70158046 140.351401,1.15704023 140.351401,1.83951149 L140.351401,18.8150862 C140.351401,19.6674569 140.862895,20.1789511 141.630496,20.1789511 C142.351042,20.1789511 142.851042,19.6911638 142.876904,18.8783046 L142.876904,0.70158046 L141.488614,0.70158046 Z" id="Fill-20" fill="#FEFEFE"></path>
                    <path d="M52.1461207,0.70158046 C51.435273,0.70158046 51.008908,1.15704023 51.008908,1.83951149 L51.008908,18.8150862 C51.008908,19.6674569 51.5204023,20.1789511 52.2883621,20.1789511 C52.9083333,20.1789511 53.3634339,19.8161638 53.495977,19.1979885 L53.495977,0.70158046 L52.1461207,0.70158046 Z" id="Fill-22" fill="#FEFEFE"></path>
                    <path d="M58.1177443,0.70158046 L55.7844109,0.70158046 L55.7844109,3.06221264 L58.0322557,3.06221264 C60.4209052,3.06221264 61.8142241,4.37076149 61.8142241,6.47385057 C61.8142241,8.57801724 60.4209052,9.88548851 58.0322557,9.88548851 L55.7844109,9.88548851 L55.7844109,12.2457615 L58.1177443,12.2457615 C61.9844828,12.2457615 64.3163793,9.91422414 64.3163793,6.47385057 C64.3163793,3.03347701 61.9844828,0.70158046 58.1177443,0.70158046" id="Fill-24" fill="#FEFEFE"></path>
                    <path d="M10.5855603,19.146444 L1.06005747,19.146444 C0.603520115,19.146444 0.272701149,19.4661279 0.272701149,19.905783 C0.272701149,20.3382543 0.603520115,20.6521911 1.06005747,20.6521911 L10.5855603,20.6521911 C11.0417385,20.6521911 11.3729167,20.3325072 11.3729167,19.8924928 C11.3729167,19.4603807 11.0417385,19.146444 10.5855603,19.146444" id="Fill-26" fill="#FEFEFE"></path>
                    <path d="M10.5855603,0.991989943 L1.06005747,0.991989943 C0.603520115,0.991989943 0.272701149,1.31167385 0.272701149,1.75168822 C0.272701149,2.18380029 0.603520115,2.49773707 1.06005747,2.49773707 L10.5855603,2.49773707 C11.0417385,2.49773707 11.3729167,2.17841236 11.3729167,1.73803879 C11.3729167,1.30592672 11.0417385,0.991989943 10.5855603,0.991989943" id="Fill-28" fill="#FEFEFE"></path>
                    <path d="M1.40028736,11.758046 L4.91788793,8.23972701 L4.91788793,15.8568247 C4.91788793,16.3090517 5.28606322,16.6768678 5.73829023,16.6768678 C6.19051724,16.6768678 6.55833333,16.3090517 6.55833333,15.8568247 L6.55833333,8.23972701 L10.0762931,11.758046 C10.3869971,12.0673132 10.9250718,12.0680316 11.2357759,11.758046 C11.3909483,11.6028736 11.4760776,11.3966954 11.4760776,11.1779454 C11.4760776,10.958477 11.3909483,10.752658 11.2357759,10.5978448 L5.73829023,5.0996408 L0.240445402,10.5978448 C0.0852729885,10.752658 0.000143678161,10.958477 0.000143678161,11.1779454 C0.000143678161,11.3966954 0.0852729885,11.6028736 0.240445402,11.758046 C0.395617816,11.9128592 0.601436782,11.9979885 0.820186782,11.9979885 C1.03929598,11.9979885 1.24511494,11.9128592 1.40028736,11.758046" id="Fill-30" fill="#FEFEFE"></path>
                </g>
            </g>
            <g id="TopFloor" transform="translate(137.000000, 15.000000)">
                <g id="TopFloor-Logo">
                    <path d="M29.9672055,0.70158046 L18.1669181,0.70158046 C17.3989583,0.70158046 16.9158405,1.2137931 16.9158405,1.89626437 C16.9158405,2.55 17.3989583,3.06221264 18.1669181,3.06221264 L22.6313578,3.06221264 C22.7448635,3.06221264 22.8016164,3.11896552 22.8016164,3.23283046 L22.8016164,18.8150862 C22.8016164,19.6674569 23.3134698,20.1789511 24.0810704,20.1789511 C24.8202945,20.1789511 25.3325072,19.6674569 25.3325072,18.8150862 L25.3325072,3.23283046 C25.3325072,3.11896552 25.3892601,3.06221264 25.503125,3.06221264 L29.9672055,3.06221264 C30.734806,3.06221264 31.2179239,2.55 31.2179239,1.89626437 C31.2179239,1.2137931 30.734806,0.70158046 29.9672055,0.70158046" id="Fill-1" fill="#FEFEFE"></path>
                    <path d="M43.9002155,15.0041307 C43.3316092,16.7957974 42.051796,17.9901221 39.8057471,17.9901221 C37.5877155,17.9901221 36.3082615,16.7957974 35.7396552,15.0041307 C35.426796,14.0655532 35.2845546,12.9283405 35.2845546,10.3697917 C35.2845546,7.81052443 35.426796,6.67331178 35.7396552,5.73509339 C36.3082615,3.94342672 37.5877155,2.74946121 39.8057471,2.74946121 C42.051796,2.74946121 43.3316092,3.94342672 43.9002155,5.73509339 C44.2130747,6.67331178 44.3553161,7.81052443 44.3553161,10.3697917 C44.3553161,12.9283405 44.2130747,14.0655532 43.9002155,15.0041307 M39.8057471,0.389188218 C36.4788793,0.389188218 34.2324713,2.00987787 33.2658764,4.96713362 C32.8111351,6.36045259 32.7256466,7.61188937 32.7256466,10.3697917 C32.7256466,13.1273348 32.8111351,14.3784124 33.2658764,15.7724497 C34.2324713,18.7293463 36.4788793,20.3500359 39.8057471,20.3500359 C43.1609914,20.3500359 45.4073994,18.7293463 46.3739943,15.7724497 C46.8290948,14.3784124 46.9145833,13.1273348 46.9145833,10.3697917 C46.9145833,7.61188937 46.8290948,6.36045259 46.3739943,4.96713362 C45.4073994,2.00987787 43.1609914,0.389188218 39.8057471,0.389188218" id="Fill-3" fill="#FEFEFE"></path>
                    <path d="M85.7845546,0.70158046 L75.8610632,0.70158046 C75.1498563,0.70158046 74.7234914,1.15704023 74.7234914,1.83951149 L74.7234914,18.8150862 C74.7234914,19.6674569 75.2353448,20.1789511 76.0029454,20.1789511 C76.7421695,20.1789511 77.2543822,19.6674569 77.2543822,18.8150862 L77.2543822,11.7910201 C77.2543822,11.7055316 77.3107759,11.6494971 77.4242816,11.6494971 L84.3905172,11.6494971 C85.1588362,11.6494971 85.6423132,11.1372845 85.6423132,10.454454 C85.6423132,9.80071839 85.1588362,9.28922414 84.3905172,9.28922414 L77.4242816,9.28922414 C77.3107759,9.28922414 77.2543822,9.23175287 77.2543822,9.11824713 L77.2543822,3.23283046 C77.2543822,3.11896552 77.3107759,3.06221264 77.4242816,3.06221264 L85.7845546,3.06221264 C86.5521552,3.06221264 87.035273,2.55 87.035273,1.86752874 C87.035273,1.2137931 86.5521552,0.70158046 85.7845546,0.70158046" id="Fill-5" fill="#FEFEFE"></path>
                    <path d="M101.623168,17.6770474 L93.2341595,17.6770474 C93.1206537,17.6770474 93.0646193,17.6202945 93.0646193,17.5057112 L93.0646193,1.92453305 C93.0646193,1.07180316 92.5240302,0.559949713 91.784806,0.559949713 C91.0455819,0.559949713 90.5333693,1.07180316 90.5333693,1.92453305 L90.5333693,18.7855244 C90.5333693,19.5538434 90.9881106,20.0369612 91.7560704,20.0369612 L101.623168,20.0369612 C102.390769,20.0369612 102.873886,19.5251078 102.873886,18.8429957 C102.873886,18.1892601 102.390769,17.6770474 101.623168,17.6770474" id="Fill-7" fill="#FEFEFE"></path>
                    <path d="M115.641631,15.0041307 C115.072665,16.7957974 113.792852,17.9901221 111.546803,17.9901221 C109.329131,17.9901221 108.049318,16.7957974 107.479993,15.0041307 C107.167852,14.0655532 107.025251,12.9283405 107.025251,10.3697917 C107.025251,7.81052443 107.167852,6.67331178 107.479993,5.73509339 C108.049318,3.94342672 109.329131,2.74946121 111.546803,2.74946121 C113.792852,2.74946121 115.072665,3.94342672 115.641631,5.73509339 C115.954131,6.67331178 116.096013,7.81052443 116.096013,10.3697917 C116.096013,12.9283405 115.954131,14.0655532 115.641631,15.0041307 M111.546803,0.389188218 C108.219935,0.389188218 105.973527,2.00987787 105.006932,4.96713362 C104.551473,6.36045259 104.466703,7.61188937 104.466703,10.3697917 C104.466703,13.1273348 104.551473,14.3784124 105.006932,15.7724497 C105.973527,18.7293463 108.219935,20.3500359 111.546803,20.3500359 C114.901688,20.3500359 117.148096,18.7293463 118.11505,15.7724497 C118.569792,14.3784124 118.65528,13.1273348 118.65528,10.3697917 C118.65528,7.61188937 118.569792,6.36045259 118.11505,4.96713362 C117.148096,2.00987787 114.901688,0.389188218 111.546803,0.389188218" id="Fill-9" fill="#FEFEFE"></path>
                    <path d="M133.241846,15.0041307 C132.673599,16.7957974 131.393786,17.9901221 129.147737,17.9901221 C126.929705,17.9901221 125.650251,16.7957974 125.081286,15.0041307 C124.768786,14.0655532 124.627263,12.9283405 124.627263,10.3697917 C124.627263,7.81052443 124.768786,6.67331178 125.081286,5.73509339 C125.650251,3.94342672 126.929705,2.74946121 129.147737,2.74946121 C131.393786,2.74946121 132.673599,3.94342672 133.241846,5.73509339 C133.554705,6.67331178 133.697306,7.81052443 133.697306,10.3697917 C133.697306,12.9283405 133.554705,14.0655532 133.241846,15.0041307 M129.147737,0.389188218 C125.820869,0.389188218 123.574461,2.00987787 122.608226,4.96713362 C122.153125,6.36045259 122.067636,7.61188937 122.067636,10.3697917 C122.067636,13.1273348 122.153125,14.3784124 122.608226,15.7724497 C123.574461,18.7293463 125.820869,20.3500359 129.147737,20.3500359 C132.502981,20.3500359 134.749389,18.7293463 135.716343,15.7724497 C136.171444,14.3784124 136.256573,13.1273348 136.256573,10.3697917 C136.256573,7.61188937 136.171444,6.36045259 135.716343,4.96713362 C134.749389,2.00987787 132.502981,0.389188218 129.147737,0.389188218" id="Fill-11" fill="#FEFEFE"></path>
                    <g id="Group-15" transform="translate(158.764368, 0.178197)">
                        <mask id="mask-4" fill="white">
                            <use xlink:href="#path-3"></use>
                        </mask>
                        <g id="Clip-14"></g>
                        <path d="M3.28397989,5.90079023 C1.81271552,5.90079023 0.718247126,4.78943966 0.718247126,3.30237069 C0.718247126,1.81494253 1.81271552,0.719755747 3.28397989,0.719755747 C4.75524425,0.719755747 5.84971264,1.81494253 5.84971264,3.30237069 C5.84971264,4.78943966 4.75524425,5.90079023 3.28397989,5.90079023 M3.28397989,0.180962644 C1.51925287,0.180962644 0.162931034,1.53728448 0.162931034,3.30237069 C0.162931034,5.08362069 1.51925287,6.43958333 3.28397989,6.43958333 C5.06558908,6.43958333 6.40502874,5.08362069 6.40502874,3.30237069 C6.40502874,1.53728448 5.06558908,0.180962644 3.28397989,0.180962644" id="Fill-13" fill="#FEFEFE" mask="url(#mask-4)"></path>
                    </g>
                    <path d="M162.26056,3.25172414 L161.524569,3.25172414 C161.476078,3.25172414 161.459555,3.21867816 161.459555,3.18635057 L161.459555,2.35229885 C161.459555,2.30380747 161.476078,2.28764368 161.524569,2.28764368 L162.26056,2.28764368 C162.652443,2.28764368 162.832759,2.45107759 162.832759,2.76142241 C162.832759,3.07140805 162.652443,3.25172414 162.26056,3.25172414 M163.453089,2.76142241 C163.453089,2.12349138 163.029239,1.73232759 162.293606,1.73232759 L161.14921,1.73232759 C160.969253,1.73232759 160.839224,1.84655172 160.839224,2.04231322 L160.839224,4.90258621 C160.839224,5.11487069 160.952371,5.24489943 161.14921,5.24489943 C161.329526,5.24489943 161.459555,5.11487069 161.459555,4.90258621 L161.459555,3.8720546 C161.459555,3.82356322 161.459555,3.80739943 161.509483,3.80739943 L162.178664,3.80739943 L162.815876,5.03297414 C162.880891,5.16336207 162.97967,5.22945402 163.110776,5.22945402 C163.289655,5.22945402 163.404598,5.11487069 163.404598,4.95143678 C163.404598,4.90258621 163.388075,4.82033046 163.356466,4.77112069 L162.815876,3.70897989 C163.241164,3.57859195 163.453089,3.23484195 163.453089,2.76142241" id="Fill-16" fill="#FEFEFE"></path>
                    <path d="M149.990374,11.478125 C152.292816,10.7385417 153.658118,8.86210489 153.658118,6.2748204 C153.658118,2.89119971 151.298204,0.70154454 147.544612,0.70154454 L145.165302,0.70154454 L145.165302,3.06217672 L147.572989,3.06217672 C149.819397,3.06217672 151.156322,4.25578305 151.156322,6.2748204 C151.156322,8.29313937 149.819397,9.48782328 147.572989,9.48782328 L145.165302,9.48782328 L145.165302,11.8477371 L147.374353,11.8477371 L151.184339,19.3832974 C151.497198,19.9235273 151.895905,20.1789152 152.407399,20.1789152 C153.174641,20.1789152 153.630101,19.6106681 153.630101,18.9853089 C153.630101,18.7292026 153.572629,18.5302083 153.458764,18.3028376 L149.990374,11.478125 Z" id="Fill-18" fill="#FEFEFE"></path>
                    <path d="M141.488614,0.70158046 C140.777407,0.70158046 140.351401,1.15704023 140.351401,1.83951149 L140.351401,18.8150862 C140.351401,19.6674569 140.862895,20.1789511 141.630496,20.1789511 C142.351042,20.1789511 142.851042,19.6911638 142.876904,18.8783046 L142.876904,0.70158046 L141.488614,0.70158046 Z" id="Fill-20" fill="#FEFEFE"></path>
                    <path d="M52.1461207,0.70158046 C51.435273,0.70158046 51.008908,1.15704023 51.008908,1.83951149 L51.008908,18.8150862 C51.008908,19.6674569 51.5204023,20.1789511 52.2883621,20.1789511 C52.9083333,20.1789511 53.3634339,19.8161638 53.495977,19.1979885 L53.495977,0.70158046 L52.1461207,0.70158046 Z" id="Fill-22" fill="#FEFEFE"></path>
                    <path d="M58.1177443,0.70158046 L55.7844109,0.70158046 L55.7844109,3.06221264 L58.0322557,3.06221264 C60.4209052,3.06221264 61.8142241,4.37076149 61.8142241,6.47385057 C61.8142241,8.57801724 60.4209052,9.88548851 58.0322557,9.88548851 L55.7844109,9.88548851 L55.7844109,12.2457615 L58.1177443,12.2457615 C61.9844828,12.2457615 64.3163793,9.91422414 64.3163793,6.47385057 C64.3163793,3.03347701 61.9844828,0.70158046 58.1177443,0.70158046" id="Fill-24" fill="#FEFEFE"></path>
                    <path d="M10.5855603,19.146444 L1.06005747,19.146444 C0.603520115,19.146444 0.272701149,19.4661279 0.272701149,19.905783 C0.272701149,20.3382543 0.603520115,20.6521911 1.06005747,20.6521911 L10.5855603,20.6521911 C11.0417385,20.6521911 11.3729167,20.3325072 11.3729167,19.8924928 C11.3729167,19.4603807 11.0417385,19.146444 10.5855603,19.146444" id="Fill-26" fill="#FEFEFE"></path>
                    <path d="M10.5855603,0.991989943 L1.06005747,0.991989943 C0.603520115,0.991989943 0.272701149,1.31167385 0.272701149,1.75168822 C0.272701149,2.18380029 0.603520115,2.49773707 1.06005747,2.49773707 L10.5855603,2.49773707 C11.0417385,2.49773707 11.3729167,2.17841236 11.3729167,1.73803879 C11.3729167,1.30592672 11.0417385,0.991989943 10.5855603,0.991989943" id="Fill-28" fill="#FEFEFE"></path>
                    <path d="M1.40028736,11.758046 L4.91788793,8.23972701 L4.91788793,15.8568247 C4.91788793,16.3090517 5.28606322,16.6768678 5.73829023,16.6768678 C6.19051724,16.6768678 6.55833333,16.3090517 6.55833333,15.8568247 L6.55833333,8.23972701 L10.0762931,11.758046 C10.3869971,12.0673132 10.9250718,12.0680316 11.2357759,11.758046 C11.3909483,11.6028736 11.4760776,11.3966954 11.4760776,11.1779454 C11.4760776,10.958477 11.3909483,10.752658 11.2357759,10.5978448 L5.73829023,5.0996408 L0.240445402,10.5978448 C0.0852729885,10.752658 0.000143678161,10.958477 0.000143678161,11.1779454 C0.000143678161,11.3966954 0.0852729885,11.6028736 0.240445402,11.758046 C0.395617816,11.9128592 0.601436782,11.9979885 0.820186782,11.9979885 C1.03929598,11.9979885 1.24511494,11.9128592 1.40028736,11.758046" id="Fill-30" fill="#FEFEFE"></path>
                </g>
            </g>
        </g>
    </g>
</svg>