<?xml version="1.0" encoding="UTF-8" standalone="no"?>
<svg width="35px" height="35px" viewBox="0 0 35 35" version="1.1" xmlns="http://www.w3.org/2000/svg" xmlns:xlink="http://www.w3.org/1999/xlink">
    <!-- Generator: sketchtool 3.8.3 (29802) - http://www.bohemiancoding.com/sketch -->
    <title>1D8A713B-BBE4-4E86-8025-F2AC73C71CF0</title>
    <desc>Created with sketchtool.</desc>
    <defs>
        <polygon id="path-1" points="34.0162 0.728 0.0002 0.728 0.0002 34.7435 34.0162 34.7435 34.0162 0.728"></polygon>
    </defs>
    <g id="Symbols" stroke="none" stroke-width="1" fill="none" fill-rule="evenodd">
        <g id="Footer" transform="translate(-1324.000000, -66.000000)">
            <g id="Footer-Info" transform="translate(159.000000, 66.000000)">
                <g id="Group-6" transform="translate(1165.000000, 0.000000)">
                    <mask id="mask-2" fill="white">
                        <use xlink:href="#path-1"></use>
                    </mask>
                    <g id="Clip-5"></g>
                    <path d="M20.7632,14.8555 L20.5672,17.3995 L17.9592,17.3995 L17.9592,26.2395 L14.6632,26.2395 L14.6632,17.3995 L12.9052,17.3995 L12.9052,14.8555 L14.6632,14.8555 L14.6632,13.1465 C14.6632,12.3935 14.6822,11.2315 15.2292,10.5115 C15.8062,9.7495 16.5972,9.2315 17.9592,9.2315 C20.1772,9.2315 21.1112,9.5475 21.1112,9.5475 L20.6722,12.1525 C20.6722,12.1525 19.9392,11.9405 19.2552,11.9405 C18.5712,11.9405 17.9592,12.1855 17.9592,12.8695 L17.9592,14.8555 L20.7632,14.8555 Z M17.0082,0.7275 C7.6152,0.7275 0.0002,8.3425 0.0002,17.7355 C0.0002,27.1285 7.6152,34.7435 17.0082,34.7435 C26.4012,34.7435 34.0162,27.1285 34.0162,17.7355 C34.0162,8.3425 26.4012,0.7275 17.0082,0.7275 L17.0082,0.7275 Z" id="Fill-4" fill-opacity="0.8" fill="#12110E" mask="url(#mask-2)"></path>
                </g>
            </g>
        </g>
    </g>
</svg>