<?xml version="1.0" encoding="UTF-8" standalone="no"?>
<svg width="35px" height="35px" viewBox="0 0 35 35" version="1.1" xmlns="http://www.w3.org/2000/svg" xmlns:xlink="http://www.w3.org/1999/xlink">
    <!-- Generator: sketchtool 3.8.3 (29802) - http://www.bohemiancoding.com/sketch -->
    <title>C45D2187-DB77-4F2A-9A8D-AD3F2CD3D525</title>
    <desc>Created with sketchtool.</desc>
    <defs>
        <polygon id="path-1" points="0.1332 35 34.149 35 34.149 0.9842 0.1332 0.9842 0.1332 35"></polygon>
    </defs>
    <g id="Symbols" stroke="none" stroke-width="1" fill="none" fill-rule="evenodd">
        <g id="Footer" transform="translate(-1279.000000, -66.000000)">
            <g id="Footer-Info" transform="translate(159.000000, 66.000000)">
                <g id="Group-3" transform="translate(1120.000000, 0.000000)">
                    <mask id="mask-2" fill="white">
                        <use xlink:href="#path-1"></use>
                    </mask>
                    <g id="Clip-2"></g>
                    <path d="M23.9302,15.3462 C23.9362,15.4952 23.9392,15.6462 23.9392,15.7982 C23.9392,20.4182 20.4252,25.7432 13.9942,25.7432 C12.0212,25.7432 10.1832,25.1642 8.6372,24.1732 C8.9092,24.2062 9.1882,24.2212 9.4712,24.2212 C11.1082,24.2212 12.6152,23.6632 13.8112,22.7252 C12.2822,22.6982 10.9912,21.6872 10.5472,20.2992 C10.7592,20.3402 10.9792,20.3612 11.2042,20.3612 C11.5232,20.3612 11.8322,20.3202 12.1252,20.2382 C10.5252,19.9172 9.3212,18.5052 9.3212,16.8102 L9.3212,16.7672 C9.7922,17.0282 10.3322,17.1862 10.9052,17.2042 C9.9672,16.5772 9.3492,15.5062 9.3492,14.2952 C9.3492,13.6542 9.5222,13.0542 9.8232,12.5362 C11.5482,14.6522 14.1222,16.0422 17.0272,16.1882 C16.9672,15.9332 16.9372,15.6672 16.9372,15.3922 C16.9372,13.4632 18.5022,11.8972 20.4312,11.8972 C21.4372,11.8972 22.3472,12.3222 22.9832,13.0012 C23.7802,12.8452 24.5272,12.5542 25.2032,12.1542 C24.9432,12.9702 24.3882,13.6542 23.6662,14.0872 C24.3732,14.0022 25.0472,13.8142 25.6742,13.5362 C25.2062,14.2372 24.6132,14.8532 23.9302,15.3462 M17.1412,0.9842 C7.7472,0.9842 0.1332,8.5992 0.1332,17.9922 C0.1332,27.3862 7.7472,35.0002 17.1412,35.0002 C26.5342,35.0002 34.1492,27.3862 34.1492,17.9922 C34.1492,8.5992 26.5342,0.9842 17.1412,0.9842" id="Fill-1" fill-opacity="0.8" fill="#12110E" mask="url(#mask-2)"></path>
                </g>
            </g>
        </g>
    </g>
</svg>