<?xml version="1.0" encoding="utf-8"?>
<!-- Generator: Adobe Illustrator 16.0.0, SVG Export Plug-In . SVG Version: 6.00 Build 0)  -->
<!DOCTYPE svg PUBLIC "-//W3C//DTD SVG 1.1//EN" "http://www.w3.org/Graphics/SVG/1.1/DTD/svg11.dtd">
<svg version="1.1" id="Capa_1" xmlns="http://www.w3.org/2000/svg" xmlns:xlink="http://www.w3.org/1999/xlink" x="0px" y="0px"
	 width="100px" height="100px" viewBox="0 0 100 100" enable-background="new 0 0 100 100" xml:space="preserve">
<line fill="none" stroke="#DB3832" stroke-width="2.7336" stroke-miterlimit="10" x1="98.179" y1="98" x2="1.821" y2="98"/>
<rect x="43.85" y="35.128" fill="none" stroke="#DB3832" stroke-width="2.7336" stroke-miterlimit="10" width="31.436" height="62.872"/>
<line fill="none" stroke="#DB3832" stroke-width="2.7336" stroke-miterlimit="10" x1="72.039" y1="35.128" x2="72.039" y2="28.978"/>
<line fill="none" stroke="#DB3832" stroke-width="2.7336" stroke-miterlimit="10" x1="67.939" y1="35.128" x2="67.939" y2="30.344"/>
<line fill="none" stroke="#DB3832" stroke-width="2.7336" stroke-miterlimit="10" x1="50.213" y1="47.173" x2="56.62" y2="47.173"/>
<line fill="none" stroke="#DB3832" stroke-width="2.7336" stroke-miterlimit="10" x1="62.515" y1="47.173" x2="68.922" y2="47.173"/>
<line fill="none" stroke="#DB3832" stroke-width="2.7336" stroke-miterlimit="10" x1="50.213" y1="55.375" x2="56.62" y2="55.375"/>
<line fill="none" stroke="#DB3832" stroke-width="2.7336" stroke-miterlimit="10" x1="62.515" y1="55.375" x2="68.922" y2="55.375"/>
<line fill="none" stroke="#DB3832" stroke-width="2.7336" stroke-miterlimit="10" x1="50.213" y1="63.574" x2="56.62" y2="63.574"/>
<line fill="none" stroke="#DB3832" stroke-width="2.7336" stroke-miterlimit="10" x1="62.515" y1="63.574" x2="68.922" y2="63.574"/>
<line fill="none" stroke="#DB3832" stroke-width="2.7336" stroke-miterlimit="10" x1="50.213" y1="71.775" x2="56.62" y2="71.775"/>
<line fill="none" stroke="#DB3832" stroke-width="2.7336" stroke-miterlimit="10" x1="62.515" y1="71.775" x2="68.922" y2="71.775"/>
<polyline fill="none" stroke="#DB3832" stroke-width="2.7336" stroke-miterlimit="10" points="56.179,98 56.179,86.383 
	62.956,86.383 62.956,98 "/>
<circle fill="none" stroke="#DB3832" stroke-width="2.7336" stroke-miterlimit="10" cx="27.662" cy="86.383" r="3.417"/>
<line fill="none" stroke="#DB3832" stroke-width="1.3668" stroke-miterlimit="10" x1="27.662" y1="89.801" x2="27.662" y2="98"/>
</svg>
