<?xml version="1.0" encoding="utf-8"?>
<!-- Generator: Adobe Illustrator 16.0.0, SVG Export Plug-In . SVG Version: 6.00 Build 0)  -->
<!DOCTYPE svg PUBLIC "-//W3C//DTD SVG 1.1//EN" "http://www.w3.org/Graphics/SVG/1.1/DTD/svg11.dtd">
<svg version="1.1" id="Capa_1" xmlns="http://www.w3.org/2000/svg" xmlns:xlink="http://www.w3.org/1999/xlink" x="0px" y="0px"
	 width="100px" height="100px" viewBox="0 0 100 100" enable-background="new 0 0 100 100" xml:space="preserve">
<g>
	<line fill="none" stroke="#DB3832" stroke-width="2.7234" stroke-miterlimit="10" x1="98" y1="97.822" x2="2" y2="97.822"/>
	
		<line fill="none" stroke="#DB3832" stroke-width="2.7234" stroke-miterlimit="10" x1="88.298" y1="40.63" x2="88.298" y2="35.865"/>
	
		<line fill="none" stroke="#DB3832" stroke-width="2.7234" stroke-miterlimit="10" x1="14.809" y1="52.631" x2="21.191" y2="52.631"/>
	
		<line fill="none" stroke="#DB3832" stroke-width="2.7234" stroke-miterlimit="10" x1="14.809" y1="60.801" x2="21.191" y2="60.801"/>
	
		<line fill="none" stroke="#DB3832" stroke-width="2.7234" stroke-miterlimit="10" x1="14.809" y1="68.971" x2="21.191" y2="68.971"/>
	
		<line fill="none" stroke="#DB3832" stroke-width="2.7234" stroke-miterlimit="10" x1="14.809" y1="77.141" x2="21.191" y2="77.141"/>
	
		<rect x="41.148" y="54.248" fill="none" stroke="#DB3832" stroke-width="2.7234" stroke-miterlimit="10" width="17.702" height="43.574"/>
	
		<rect x="7.106" y="40.63" fill="none" stroke="#DB3832" stroke-width="2.7234" stroke-miterlimit="10" width="34.042" height="57.192"/>
	
		<rect x="58.851" y="40.63" fill="none" stroke="#DB3832" stroke-width="2.7234" stroke-miterlimit="10" width="34.043" height="57.192"/>
	<polyline fill="none" stroke="#DB3832" stroke-width="1.3617" stroke-miterlimit="10" points="47.133,97.822 47.133,86.248 
		52.523,86.248 52.523,97.822 	"/>
	<path fill="none" stroke="#DB3832" stroke-width="2.7234" stroke-miterlimit="10" d="M39.944,65.936"/>
	<path fill="none" stroke="#DB3832" stroke-width="2.7234" stroke-miterlimit="10" d="M60.396,65.936"/>
	
		<line fill="none" stroke="#DB3832" stroke-width="2.7234" stroke-miterlimit="10" x1="84.213" y1="40.63" x2="84.213" y2="37.226"/>
	
		<line fill="none" stroke="#DB3832" stroke-width="2.7234" stroke-miterlimit="10" x1="66.553" y1="52.631" x2="72.936" y2="52.631"/>
	
		<line fill="none" stroke="#DB3832" stroke-width="2.7234" stroke-miterlimit="10" x1="78.809" y1="52.631" x2="85.191" y2="52.631"/>
	
		<line fill="none" stroke="#DB3832" stroke-width="2.7234" stroke-miterlimit="10" x1="66.553" y1="60.801" x2="72.936" y2="60.801"/>
	
		<line fill="none" stroke="#DB3832" stroke-width="2.7234" stroke-miterlimit="10" x1="78.809" y1="60.801" x2="85.191" y2="60.801"/>
	
		<line fill="none" stroke="#DB3832" stroke-width="2.7234" stroke-miterlimit="10" x1="66.553" y1="68.971" x2="72.936" y2="68.971"/>
	
		<line fill="none" stroke="#DB3832" stroke-width="2.7234" stroke-miterlimit="10" x1="46.636" y1="68.971" x2="53.019" y2="68.971"/>
	
		<line fill="none" stroke="#DB3832" stroke-width="2.7234" stroke-miterlimit="10" x1="46.636" y1="62.162" x2="53.019" y2="62.162"/>
	
		<line fill="none" stroke="#DB3832" stroke-width="2.7234" stroke-miterlimit="10" x1="46.636" y1="75.779" x2="53.019" y2="75.779"/>
	
		<line fill="none" stroke="#DB3832" stroke-width="2.7234" stroke-miterlimit="10" x1="78.809" y1="68.971" x2="85.191" y2="68.971"/>
	
		<line fill="none" stroke="#DB3832" stroke-width="2.7234" stroke-miterlimit="10" x1="66.553" y1="77.141" x2="72.936" y2="77.141"/>
	
		<line fill="none" stroke="#DB3832" stroke-width="2.7234" stroke-miterlimit="10" x1="78.809" y1="77.141" x2="85.191" y2="77.141"/>
	
		<line fill="none" stroke="#DB3832" stroke-width="2.7234" stroke-miterlimit="10" x1="27.063" y1="52.631" x2="33.446" y2="52.631"/>
	
		<line fill="none" stroke="#DB3832" stroke-width="2.7234" stroke-miterlimit="10" x1="27.063" y1="60.801" x2="33.446" y2="60.801"/>
	
		<line fill="none" stroke="#DB3832" stroke-width="2.7234" stroke-miterlimit="10" x1="27.063" y1="68.971" x2="33.446" y2="68.971"/>
	
		<line fill="none" stroke="#DB3832" stroke-width="2.7234" stroke-miterlimit="10" x1="27.063" y1="77.141" x2="33.446" y2="77.141"/>
</g>
</svg>
