<?xml version="1.0" encoding="utf-8"?>
<!-- Generator: Adobe Illustrator 16.0.0, SVG Export Plug-In . SVG Version: 6.00 Build 0)  -->
<!DOCTYPE svg PUBLIC "-//W3C//DTD SVG 1.1//EN" "http://www.w3.org/Graphics/SVG/1.1/DTD/svg11.dtd">
<svg version="1.1" id="Capa_1" xmlns="http://www.w3.org/2000/svg" xmlns:xlink="http://www.w3.org/1999/xlink" x="0px" y="0px"
	 width="100px" height="100px" viewBox="0 0 100 100" enable-background="new 0 0 100 100" xml:space="preserve">
<g>
	<line fill="none" stroke="#DB3832" stroke-width="2.7234" stroke-miterlimit="10" x1="98" y1="98" x2="2" y2="98"/>
	<g>
		<path fill="none" stroke="#DB3832" stroke-width="2.7234" stroke-miterlimit="10" d="M91.838,56.873
			c0,10.039-8.213,18.252-18.252,18.252s-18.252-8.213-18.252-18.252s8.213-18.252,18.252-18.252S91.838,46.834,91.838,56.873z"/>
	</g>
	
		<line fill="none" stroke="#DB3832" stroke-width="2.7234" stroke-miterlimit="10" x1="73.586" y1="56.872" x2="73.586" y2="97.644"/>
	
		<line fill="none" stroke="#DB3832" stroke-width="2.7234" stroke-miterlimit="10" x1="73.586" y1="66.139" x2="80.104" y2="60.628"/>
	
		<line fill="none" stroke="#DB3832" stroke-width="2.7234" stroke-miterlimit="10" x1="73.295" y1="66.139" x2="66.777" y2="60.628"/>
	<line fill="none" stroke="#DB3832" stroke-width="2.7234" stroke-miterlimit="10" x1="98" y1="97.644" x2="2" y2="97.644"/>
	
		<rect x="16.267" y="77.968" fill="none" stroke="#DB3832" stroke-width="2.7234" stroke-miterlimit="10" width="31.526" height="6.875"/>
	
		<line fill="none" stroke="#DB3832" stroke-width="2.7234" stroke-miterlimit="10" x1="12.593" y1="90.295" x2="51.467" y2="90.295"/>
	
		<line fill="none" stroke="#DB3832" stroke-width="2.7234" stroke-miterlimit="10" x1="16.267" y1="90.295" x2="16.267" y2="97.644"/>
	
		<line fill="none" stroke="#DB3832" stroke-width="2.7234" stroke-miterlimit="10" x1="47.793" y1="90.295" x2="47.793" y2="97.644"/>
	
		<line fill="none" stroke="#DB3832" stroke-width="2.7234" stroke-miterlimit="10" x1="19.586" y1="84.843" x2="19.586" y2="90.295"/>
	
		<line fill="none" stroke="#DB3832" stroke-width="2.7234" stroke-miterlimit="10" x1="44.475" y1="84.843" x2="44.475" y2="90.295"/>
	<polyline fill="none" stroke="#DB3832" stroke-width="2.7234" stroke-miterlimit="10" points="61.35,13.867 64.676,17.271 
		68.002,13.867 	"/>
	<polyline fill="none" stroke="#DB3832" stroke-width="2.7234" stroke-miterlimit="10" points="18.659,35.606 21.984,39.011 
		25.312,35.606 	"/>
</g>
</svg>
