<?xml version="1.0" encoding="UTF-8" standalone="no"?>
<svg width="20px" height="20px" viewBox="0 0 20 20" version="1.1" xmlns="http://www.w3.org/2000/svg" xmlns:xlink="http://www.w3.org/1999/xlink">
    <!-- Generator: sketchtool 39 (31667) - http://www.bohemiancoding.com/sketch -->
    <title>342406D3-756E-4667-A3B8-FE36634BB229</title>
    <desc>Created with sketchtool.</desc>
    <defs></defs>
    <g id="Desktop--🖥" stroke="none" stroke-width="1" fill="none" fill-rule="evenodd">
        <g id="TopFloor-Profile-III" transform="translate(-822.000000, -1164.000000)" fill="#ED1C24">
            <g id="Image" transform="translate(822.000000, 1164.000000)">
                <path d="M0,1.5 L1.5,0 L1.5,20 L0,18.5 L20,18.5 L18.5,20 L18.5,0 L20,1.5 L0,1.5 Z M20,0 L20,20 L0,20 L0,0 L20,0 Z" id="Rectangle-2"></path>
                <polygon id="Path-4" points="5.53033009 12.5303301 4.61412818 12.6431197 9.61412818 15.6431197 10.207853 15.9993546 10.6103001 15.4359286 15.6103001 8.43592865 14.4696699 8.53033009 18.4696699 12.5303301 19.5303301 11.4696699 15.5303301 7.46966991 14.9042964 6.84363624 14.3896999 7.56407135 9.3896999 14.5640714 10.3858718 14.3568803 5.38587182 11.3568803 4.88373913 11.0556007 4.46966991 11.4696699 0.469669914 15.4696699 1.53033009 16.5303301"></polygon>
                <path d="M11.75,6.5 C11.75,4.70507456 10.2949254,3.25 8.5,3.25 C6.70507456,3.25 5.25,4.70507456 5.25,6.5 C5.25,8.29492544 6.70507456,9.75 8.5,9.75 C10.2949254,9.75 11.75,8.29492544 11.75,6.5 Z M6.75,6.5 C6.75,5.53350169 7.53350169,4.75 8.5,4.75 C9.46649831,4.75 10.25,5.53350169 10.25,6.5 C10.25,7.46649831 9.46649831,8.25 8.5,8.25 C7.53350169,8.25 6.75,7.46649831 6.75,6.5 Z" id="Oval-2"></path>
            </g>
        </g>
    </g>
</svg>