<?xml version="1.0" encoding="UTF-8" standalone="no"?>
<svg width="22px" height="22px" viewBox="0 0 22 22" version="1.1" xmlns="http://www.w3.org/2000/svg" xmlns:xlink="http://www.w3.org/1999/xlink">
    <!-- Generator: sketchtool 39 (31667) - http://www.bohemiancoding.com/sketch -->
    <title>C7162F02-4813-4EB8-A4CF-E9EF8FDC3330</title>
    <desc>Created with sketchtool.</desc>
    <defs>
        <rect id="path-1" x="0" y="0" width="424" height="706"></rect>
        <filter x="-50%" y="-50%" width="200%" height="200%" filterUnits="objectBoundingBox" id="filter-2">
            <feMorphology radius="1" operator="dilate" in="SourceAlpha" result="shadowSpreadOuter1"></feMorphology>
            <feOffset dx="0" dy="2" in="shadowSpreadOuter1" result="shadowOffsetOuter1"></feOffset>
            <feGaussianBlur stdDeviation="2" in="shadowOffsetOuter1" result="shadowBlurOuter1"></feGaussianBlur>
            <feComposite in="shadowBlurOuter1" in2="SourceAlpha" operator="out" result="shadowBlurOuter1"></feComposite>
            <feColorMatrix values="0 0 0 0 0   0 0 0 0 0   0 0 0 0 0  0 0 0 0.0783514493 0" type="matrix" in="shadowBlurOuter1"></feColorMatrix>
        </filter>
        <mask id="mask-3" maskContentUnits="userSpaceOnUse" maskUnits="objectBoundingBox" x="-1" y="-1" width="426" height="708">
            <rect x="-1" y="-1" width="426" height="708" fill="white"></rect>
            <use xlink:href="#path-1" fill="black"></use>
        </mask>
    </defs>
    <g id="Desktop--🖥" stroke="none" stroke-width="1" fill="none" fill-rule="evenodd">
        <g id="TopFloor-Inout-II" transform="translate(-294.000000, -906.000000)">
            <rect id="Rectangle-149" fill-opacity="0.25" fill="#EFEFEF" x="0" y="-19" width="500" height="1062"></rect>
            <g id="Group-8" transform="translate(40.000000, 261.000000)">
                <g id="Invoice">
                    <g id="Combined-Shape">
                        <use fill="black" fill-opacity="1" filter="url(#filter-2)" xlink:href="#path-1"></use>
                        <use fill="#FFFFFF" fill-rule="evenodd" xlink:href="#path-1"></use>
                        <use stroke="#D4D4D4" mask="url(#mask-3)" stroke-width="2" xlink:href="#path-1"></use>
                    </g>
                </g>
                <g id="Print-Copy" transform="translate(254.000000, 645.000000)" fill="#ED1C24">
                    <g id="link">
                        <g id="Layer_1">
                            <path d="M22,6.93 L15.07,0 L0,15.07 L6.93,22 L22,6.93 L22,6.93 Z M15.07,1.54 L20.46,6.93 L13.97,13.42 L11.66,11.11 L15.84,6.93 L15.07,6.16 L10.89,10.34 L8.58,8.03 L15.07,1.54 L15.07,1.54 Z M6.93,20.46 L1.54,15.07 L7.81,8.8 L10.12,11.11 L5.94,15.29 L6.71,16.06 L10.89,11.88 L13.2,14.19 L6.93,20.46 L6.93,20.46 Z" id="XMLID_42_"></path>
                        </g>
                    </g>
                </g>
            </g>
        </g>
    </g>
</svg>