<?xml version="1.0" encoding="UTF-8" standalone="no"?>
<svg width="24px" height="22px" viewBox="0 0 24 22" version="1.1" xmlns="http://www.w3.org/2000/svg" xmlns:xlink="http://www.w3.org/1999/xlink">
    <!-- Generator: Sketch 39 (31667) - http://www.bohemiancoding.com/sketch -->
    <title>photo</title>
    <desc>Created with Sketch.</desc>
    <defs></defs>
    <g id="Desktop--🖥" stroke="none" stroke-width="1" fill="none" fill-rule="evenodd">
        <g id="TopFloor-Profile-III" transform="translate(-808.000000, -1061.000000)" stroke="#ED1C24" stroke-width="0.5" fill="#ED1C24">
            <g id="photo" transform="translate(809.000000, 1062.000000)">
                <path d="M0,0.0907413793 L0,19.9092591 L22.0689655,19.9092591 L22.0689655,0.0907413793 L0,0.0907413793 L0,0.0907413793 Z M21.3793103,0.780396621 L21.3793103,10.8554314 L16.2594144,6.04643131 C16.1907236,5.98177614 16.1014833,5.94677562 16.0034824,5.95350003 C15.9092068,5.95887941 15.8213109,6.00267214 15.760035,6.07505141 L9.80231055,13.1180862 L5.31417255,9.43846538 C5.17679314,9.32567269 4.97406893,9.336121 4.84879297,9.46439676 L0.689655172,13.7264304 L0.689655172,0.780396621 L21.3793103,0.780396621 L21.3793103,0.780396621 Z M0.689655172,19.2196037 L0.689655172,14.7138793 L5.12155172,10.1722586 L9.62789669,13.8666718 C9.77368983,13.9865691 9.98820669,13.9667063 10.1097587,13.8225687 L16.0520001,6.79770697 L21.3793103,11.8012935 L21.3793103,19.2196037 L0.689655172,19.2196037 L0.689655172,19.2196037 Z" id="Shape"></path>
                <path d="M8.96551724,8.02177562 C10.2963106,8.02177562 11.3793103,6.93881003 11.3793103,5.60798252 C11.3793103,4.27718952 10.2963106,3.19418976 8.96551724,3.19418976 C7.63468972,3.19418976 6.55172414,4.27718955 6.55172414,5.60798252 C6.55172414,6.93881003 7.63468972,8.02177562 8.96551724,8.02177562 L8.96551724,8.02177562 Z M8.96551724,3.8838449 C9.91613783,3.8838449 10.6896552,4.6573619 10.6896552,5.60798248 C10.6896552,6.55863793 9.91613783,7.33212041 8.96551724,7.33212041 C8.01486179,7.33212041 7.24137931,6.55863793 7.24137931,5.60798248 C7.24137931,4.65736193 8.01486179,3.8838449 8.96551724,3.8838449 L8.96551724,3.8838449 Z" id="Shape"></path>
            </g>
        </g>
    </g>
</svg>