<?xml version="1.0" encoding="UTF-8" standalone="no"?>
<svg width="90px" height="100px" viewBox="0 0 90 100" version="1.1" xmlns="http://www.w3.org/2000/svg" xmlns:xlink="http://www.w3.org/1999/xlink">
    <!-- Generator: sketchtool 3.8.3 (29802) - http://www.bohemiancoding.com/sketch -->
    <title>4748C2E4-253F-4E68-B350-8BB5EE3C71A0</title>
    <desc>Created with sketchtool.</desc>
    <defs></defs>
    <g id="Desktop--🖥" stroke="none" stroke-width="1" fill="none" fill-rule="evenodd">
        <g id="TopFloor-HomeII" transform="translate(-1153.000000, -1971.000000)" fill="#ED1C24">
            <g id="lock" transform="translate(1153.000000, 1971.000000)">
                <g id="Layer_1">
                    <g id="XMLID_1_" transform="translate(0.000000, 35.000000)">
                        <path d="M85,5 L85,60 L5,60 L5,5 L85,5 L85,5 Z M90,0 L0,0 L0,65 L90,65 L90,0 L90,0 L90,0 Z" id="XMLID_5_"></path>
                        <circle id="XMLID_60_" cx="45" cy="32.5" r="7.5"></circle>
                    </g>
                    <g id="XMLID_62_" transform="translate(10.000000, 0.000000)">
                        <g id="XMLID_64_">
                            <path d="M70,35 L65,35 C65,18.5 51.5,5 35,5 C18.5,5 5,18.5 5,35 L0,35 C0,15.5 15.5,0 35,0 C54.5,0 70,15.5 70,35 L70,35 Z" id="XMLID_14_"></path>
                        </g>
                    </g>
                </g>
            </g>
        </g>
    </g>
</svg>