<?xml version="1.0" encoding="UTF-8" standalone="no"?>
<svg width="100px" height="100px" viewBox="0 0 100 100" version="1.1" xmlns="http://www.w3.org/2000/svg" xmlns:xlink="http://www.w3.org/1999/xlink">
    <!-- Generator: sketchtool 3.8.3 (29802) - http://www.bohemiancoding.com/sketch -->
    <title>013D086E-9D11-480D-AE7E-42CCA772182D</title>
    <desc>Created with sketchtool.</desc>
    <defs></defs>
    <g id="Desktop--🖥" stroke="none" stroke-width="1" fill="none" fill-rule="evenodd">
        <g id="TopFloor-HomeII" transform="translate(-603.000000, -2273.000000)">
            <g id="magnifier" transform="translate(603.000000, 2273.000000)">
                <g id="Layer_1">
                    <g id="XMLID_1_">
                        <g id="XMLID_63_" fill="#FF0000">
                            <path d="M38,5.5 C56,5.5 70.5,20 70.5,38 C70.5,56 56,70.5 38,70.5 C20,70.5 5.5,56 5.5,38 C5.5,20 20.5,5.5 38,5.5 L38,5.5 Z M38,0.5 C17.5,0.5 0.5,17.5 0.5,38 C0.5,58.5 17.5,75.5 38,75.5 C58.5,75.5 75.5,58.5 75.5,38 C75.5,17.5 59,0.5 38,0.5 L38,0.5 L38,0.5 Z" id="XMLID_26_"></path>
                        </g>
                        <path d="M38,5.5 C56,5.5 70.5,20 70.5,38 C70.5,56 56,70.5 38,70.5 C20,70.5 5.5,56 5.5,38 C5.5,20 20.5,5.5 38,5.5 L38,5.5 L38,5.5 Z M38,0.5 C17.5,0.5 0.5,17.5 0.5,38 C0.5,58.5 17.5,75.5 38,75.5 C58.5,75.5 75.5,58.5 75.5,38 C75.5,17.5 59,0.5 38,0.5 L38,0.5 L38,0.5 Z" id="XMLID_122_" fill="#ED1C24"></path>
                        <g id="XMLID_120_" transform="translate(61.000000, 61.000000)" fill="#ED1C24">
                            <rect id="XMLID_4_" transform="translate(19.522500, 19.489600) rotate(45.000000) translate(-19.522500, -19.489600) " x="-4.47726984" y="16.989624" width="47.9995397" height="4.99995205"></rect>
                        </g>
                    </g>
                </g>
            </g>
        </g>
    </g>
</svg>