<?xml version="1.0" encoding="UTF-8" standalone="no"?>
<svg width="20px" height="20px" viewBox="0 0 20 20" version="1.1" xmlns="http://www.w3.org/2000/svg" xmlns:xlink="http://www.w3.org/1999/xlink">
    <!-- Generator: sketchtool 39 (31667) - http://www.bohemiancoding.com/sketch -->
    <title>E02E9914-0EE0-4AF1-942C-B23ED9093C5A</title>
    <desc>Created with sketchtool.</desc>
    <defs></defs>
    <g id="Desktop--🖥" stroke="none" stroke-width="1" fill="none" fill-rule="evenodd">
        <g id="TopFloor-Profile-III" transform="translate(-727.000000, -2198.000000)" fill="#ED1C24">
            <g id="Time" transform="translate(727.000000, 2198.000000)">
                <g>
                    <path d="M0,1.5 L1.5,0 L1.5,20 L0,18.5 L20,18.5 L18.5,20 L18.5,0 L20,1.5 L0,1.5 Z M20,0 L20,20 L0,20 L0,0 L20,0 Z" id="Rectangle-2"></path>
                    <g id="Group-6" transform="translate(5.000000, 3.000000)">
                        <g id="Group-15">
                            <polygon id="Line" points="5 8.75 5 9.5 6.5 9.5 6.5 8.75 6.5 0.75 6.5 0 5 0 5 0.75"></polygon>
                            <polygon id="Line" points="0.75 8 0 8 0 9.5 0.75 9.5 5.75 9.5 6.5 9.5 6.5 8 5.75 8"></polygon>
                        </g>
                    </g>
                </g>
            </g>
        </g>
    </g>
</svg>