<?xml version="1.0" encoding="UTF-8" standalone="no"?>
<svg width="23px" height="40px" viewBox="0 0 23 40" version="1.1" xmlns="http://www.w3.org/2000/svg" xmlns:xlink="http://www.w3.org/1999/xlink">
    <!-- Generator: sketchtool 3.8.3 (29802) - http://www.bohemiancoding.com/sketch -->
    <title>82645E2A-2E33-4238-B618-5F3E46CF2D29</title>
    <desc>Created with sketchtool.</desc>
    <defs>
        <polygon id="path-1" points="21.7555556 0.41382716 0 0.41382716 0 1.57501235 0 2.73619753 21.7555556 2.73619753 21.7555556 0.41382716"></polygon>
    </defs>
    <g id="Desktop--🖥" stroke="none" stroke-width="1" fill="none" fill-rule="evenodd">
        <g id="TopFloor-HomeII" transform="translate(-1297.000000, -3626.000000)">
            <g id="Page-1" transform="translate(1297.000000, 3626.000000)">
                <g id="Group-3" transform="translate(0.000000, 0.080099)">
                    <mask id="mask-2" fill="white">
                        <use xlink:href="#path-1"></use>
                    </mask>
                    <g id="Clip-2"></g>
                    <path d="M20.5239506,0.413728395 L19.7861728,0.413728395 L14.6241975,0.413728395 L10.4222222,0.413728395 L1.23111111,0.413728395 C0.475555556,0.413728395 0,0.917925926 0,1.58854321 C0,2.23397531 0.475555556,2.73619753 1.23111111,2.73619753 L10.4222222,2.73619753 L14.6241975,2.73619753 L19.7861728,2.73619753 L20.5239506,2.73619753 C21.2795062,2.73619753 21.7555556,2.23298765 21.7555556,1.56138272 C21.7555556,0.917432099 21.2795062,0.413728395 20.5239506,0.413728395" id="Fill-1" fill="#ED1C24" mask="url(#mask-2)"></path>
                </g>
                <path d="M21.1026667,37.2637037 L20.3648889,37.2637037 L15.2039012,37.2637037 L11.0009383,37.2637037 L1.81032099,37.2637037 C1.0542716,37.2637037 0.578716049,37.7674074 0.578716049,38.4385185 C0.578716049,39.082963 1.0542716,39.5861728 1.81032099,39.5861728 L11.0009383,39.5861728 L15.2039012,39.5861728 L20.3648889,39.5861728 L21.1026667,39.5861728 C21.8577284,39.5861728 22.3337778,39.0819753 22.3337778,38.4103704 C22.3337778,37.7664198 21.8577284,37.2637037 21.1026667,37.2637037" id="Fill-4" fill="#ED1C24"></path>
                <path d="M21.2463704,22.0573333 C20.9140247,22.0573333 20.581679,21.9309136 20.3283457,21.6770864 L11.2848889,12.6331358 L2.24192593,21.6770864 C1.73476543,22.1847407 0.913530864,22.1847407 0.406864198,21.6770864 C-0.0998024691,21.1709136 -0.0998024691,20.3491852 0.406864198,19.8430123 L11.2848889,8.964 L22.1624198,19.8430123 C22.6700741,20.3491852 22.6700741,21.1709136 22.1624198,21.6770864 C21.9100741,21.9309136 21.5782222,22.0573333 21.2463704,22.0573333" id="Fill-6" fill="#ED1C24"></path>
                <path d="M11.2849383,31.5345679 C10.5679012,31.5345679 9.98765432,30.9538272 9.98765432,30.237284 L9.98765432,10.7987654 C9.98765432,10.0822222 10.5679012,9.50148148 11.2849383,9.50148148 C12.0014815,9.50148148 12.5822222,10.0822222 12.5822222,10.7987654 L12.5822222,30.237284 C12.5822222,30.9538272 12.0014815,31.5345679 11.2849383,31.5345679" id="Fill-8" fill="#ED1C24"></path>
            </g>
        </g>
    </g>
</svg>