<?xml version="1.0" encoding="UTF-8" standalone="no"?>
<svg width="40px" height="45px" viewBox="0 0 40 45" version="1.1" xmlns="http://www.w3.org/2000/svg" xmlns:xlink="http://www.w3.org/1999/xlink">
    <!-- Generator: sketchtool 39 (31667) - http://www.bohemiancoding.com/sketch -->
    <title>7D057224-977D-48D8-BD1F-AC0ED2F930A6</title>
    <desc>Created with sketchtool.</desc>
    <defs>
        <polygon id="path-1" points="16.3166667 0.31037037 0 0.31037037 0 1.18125926 0 2.05214815 16.3166667 2.05214815 16.3166667 0.31037037"></polygon>
    </defs>
    <g id="Desktop--🖥" stroke="none" stroke-width="1" fill="none" fill-rule="evenodd">
        <g id="TopFloor-HomeIIB" transform="translate(-1280.000000, -3989.000000)">
            <g id="Group-18" transform="translate(1280.000000, 3989.000000)">
                <rect id="Rectangle-2" fill-opacity="0.8" fill="#12110E" x="0" y="0" width="40" height="45"></rect>
                <g id="Page-1" transform="translate(12.000000, 8.000000)">
                    <g id="Group-3" transform="translate(0.000000, 0.060074)">
                        <mask id="mask-2" fill="white">
                            <use xlink:href="#path-1"></use>
                        </mask>
                        <g id="Clip-2"></g>
                        <path d="M15.392963,0.310296296 L14.8396296,0.310296296 L10.9681481,0.310296296 L7.81666667,0.310296296 L0.923333333,0.310296296 C0.356666667,0.310296296 0,0.688444444 0,1.19140741 C0,1.67548148 0.356666667,2.05214815 0.923333333,2.05214815 L7.81666667,2.05214815 L10.9681481,2.05214815 L14.8396296,2.05214815 L15.392963,2.05214815 C15.9596296,2.05214815 16.3166667,1.67474074 16.3166667,1.17103704 C16.3166667,0.688074074 15.9596296,0.310296296 15.392963,0.310296296" id="Fill-1" fill="#FFFFFF" mask="url(#mask-2)"></path>
                    </g>
                    <path d="M15.827,27.9477778 L15.2736667,27.9477778 L11.4029259,27.9477778 L8.2507037,27.9477778 L1.35774074,27.9477778 C0.790703704,27.9477778 0.434037037,28.3255556 0.434037037,28.8288889 C0.434037037,29.3122222 0.790703704,29.6896296 1.35774074,29.6896296 L8.2507037,29.6896296 L11.4029259,29.6896296 L15.2736667,29.6896296 L15.827,29.6896296 C16.3932963,29.6896296 16.7503333,29.3114815 16.7503333,28.8077778 C16.7503333,28.3248148 16.3932963,27.9477778 15.827,27.9477778" id="Fill-4" fill="#FFFFFF"></path>
                    <path d="M15.9347778,16.543 C15.6855185,16.543 15.4362593,16.4481852 15.2462593,16.2578148 L8.46366667,9.47485185 L1.68144444,16.2578148 C1.30107407,16.6385556 0.685148148,16.6385556 0.305148148,16.2578148 C-0.0748518519,15.8781852 -0.0748518519,15.2618889 0.305148148,14.8822593 L8.46366667,6.723 L16.6218148,14.8822593 C17.0025556,15.2618889 17.0025556,15.8781852 16.6218148,16.2578148 C16.4325556,16.4481852 16.1836667,16.543 15.9347778,16.543" id="Fill-6" fill="#FFFFFF"></path>
                    <path d="M8.4637037,23.6509259 C7.92592593,23.6509259 7.49074074,23.2153704 7.49074074,22.677963 L7.49074074,8.09907407 C7.49074074,7.56166667 7.92592593,7.12611111 8.4637037,7.12611111 C9.00111111,7.12611111 9.43666667,7.56166667 9.43666667,8.09907407 L9.43666667,22.677963 C9.43666667,23.2153704 9.00111111,23.6509259 8.4637037,23.6509259" id="Fill-8" fill="#FFFFFF"></path>
                </g>
            </g>
        </g>
    </g>
</svg>